# xmcd
#
# Track frame offsets:
# 150
# 16944
# 32784
# 47176
# 65773
# 83620
# 103541
# 122599
# 139636
# 160354
# 175931
#
# Disc length: 2545 seconds
#
#
# Revision: 3
# Processed by: cddbd v1.5.2PL0 Copyright (c) Steve Scherf et al.
# Submitted via: FreeRIP 2.60 
#
DISCID=8c09ef0b
DTITLE=Kellie Pickler - Small Town Girl
DYEAR=2006
DGENRE=Country
TTITLE0=Red High Heels
TTITLE1=Gotta Keep Moving
TTITLE2=Things That Never Cross A Man's Mind
TTITLE3=Didn't You Know How Much I Loved You
TTITLE4=I Wonder
TTITLE5=Small Town Girl
TTITLE6=Wild Ponies
TTITLE7=Girls Like Me
TTITLE8=I'm On My Way
TTITLE9=One Of The Guys
TTITLE10=My Angel
EXTD=YEAR: 2006
EXTT0=
EXTT1=
EXTT2=
EXTT3=
EXTT4=
EXTT5=
EXTT6=
EXTT7=
EXTT8=
EXTT9=
EXTT10=
PLAYORDER=
